<?xml version="1.0" encoding="UTF-8"?>
<svg version="1.1" xmlns="http://www.w3.org/2000/svg" width="512" height="512">
<path d="M0 0 C4.3305741 2.26392268 6.82907696 4.96171272 8.92578125 9.31640625 C11.12890696 18.40253788 8.97524809 27.74466965 7.53930664 36.79345703 C7.268501 38.55887435 6.99878812 40.32445959 6.73007488 42.09019661 C5.99609342 46.89244754 5.24684329 51.69220584 4.49493122 56.49167728 C3.69764453 61.59850855 2.91473896 66.70754483 2.13018799 71.81634521 C0.61894356 81.64260191 -0.90504786 91.46683791 -2.43370545 101.29039907 C-4.18350443 112.53803296 -5.9211186 123.78753735 -7.65750849 135.0372479 C-9.88951334 149.49748787 -12.12360808 163.95740028 -14.36552429 178.41610718 C-17.92459086 201.37235151 -21.4629475 224.33132495 -24.93243217 247.3012886 C-25.51260687 251.14075583 -26.09416102 254.98001119 -26.67628479 258.81918335 C-26.85803977 260.01801462 -27.03979475 261.21684589 -27.22705746 262.45200539 C-27.57791568 264.76609495 -27.92879894 267.08018073 -28.27970982 269.39426231 C-29.09821905 274.79602294 -29.91333153 280.19825472 -30.72116089 285.60162354 C-31.4512196 290.48404833 -32.19026983 295.36501934 -32.93686676 300.24494171 C-33.19725254 301.95845406 -33.45413572 303.67250341 -33.70702362 305.38713837 C-34.04239065 307.65919525 -34.39004385 309.92903249 -34.7409668 312.19873047 C-34.9280571 313.44177948 -35.1151474 314.68482849 -35.3079071 315.96554565 C-36.68564296 321.98998862 -39.2061073 326.28565364 -43.98828125 330.109375 C-47.87104554 332.3561431 -51.65424499 332.72451024 -56.07421875 332.31640625 C-60.54858929 331.06542444 -63.36331405 329.08199593 -66.51171875 325.69140625 C-69.98578508 318.18742299 -69.13475699 310.28366139 -67.85037231 302.32362366 C-67.70648539 301.36848812 -67.56259847 300.41335258 -67.41435134 299.42927355 C-66.93263197 296.25179997 -66.43338374 293.07734224 -65.93408203 289.90258789 C-65.58324217 287.61279786 -65.23349392 285.32284035 -64.88475037 283.0327301 C-63.93442866 276.81294317 -62.96886701 270.59560707 -62.00062037 264.37858891 C-61.08405198 258.47768429 -60.17905384 252.57500999 -59.2739384 246.67234045 C-57.47092662 234.91653639 -55.65692886 223.16245522 -53.8359375 211.40942383 C-52.09056882 200.14431038 -50.34989778 188.87848976 -48.61621094 177.61157227 C-48.51051801 176.92470536 -48.40482507 176.23783845 -48.29592933 175.53015739 C-47.76437373 172.07550954 -47.23292714 168.62084493 -46.70154595 165.16617024 C-45.64790038 158.31615102 -44.59373277 151.46621216 -43.53927612 144.61631775 C-43.43623361 143.94692482 -43.3331911 143.27753188 -43.22702609 142.58785432 C-41.74152231 132.93844336 -40.2524136 123.28959288 -38.76077271 113.64112854 C-38.57307048 112.42637496 -38.38536826 111.21162138 -38.1919781 109.96005708 C-37.26583785 103.96697815 -36.33832427 97.97411789 -35.40817451 91.98165989 C-33.54306587 79.94828015 -31.70936215 67.91102312 -29.92721434 55.8651164 C-29.31750107 51.75083246 -28.70266078 47.63731063 -28.08794936 43.52377088 C-27.59645113 40.23043779 -27.11024762 36.93650756 -26.63083863 33.64138043 C-26.10271201 30.01194716 -25.56224217 26.38454436 -25.01925659 22.75730896 C-24.86650292 21.68314771 -24.71374925 20.60898646 -24.55636668 19.50227487 C-23.23502086 10.81153739 -21.17089683 5.60116652 -14.07421875 0.31640625 C-9.91833009 -1.76153808 -4.35080369 -1.43388069 0 0 Z " fill="#00C9DE" transform="translate(286.07421875,100.68359375)"/>
<path d="M0 0 C5.2313656 3.52813029 7.09345279 7.22485583 8.68359375 13.140625 C8.69432949 20.48386986 5.4533211 25.72549028 0.49609375 30.88671875 C-0.16261719 31.54285156 -0.82132812 32.19898438 -1.5 32.875 C-2.17546875 33.57109375 -2.8509375 34.2671875 -3.546875 34.984375 C-5.45374851 36.94268633 -7.37816213 38.88136026 -9.3125 40.8125 C-10.14394531 41.64652344 -10.97539062 42.48054688 -11.83203125 43.33984375 C-13.09756251 44.60038278 -14.36674647 45.85727217 -15.640625 47.109375 C-17.36509695 48.86608007 -18.96441114 50.69045305 -20.5625 52.5625 C-23.6481159 56.15766715 -26.94447291 59.48588096 -30.3125 62.8125 C-34.21146918 66.66370964 -37.92074312 70.57671745 -41.47265625 74.75390625 C-44.27085792 77.88480281 -47.28023656 80.80079695 -50.26806641 83.74853516 C-52.87370739 86.33272318 -55.37303109 88.95459158 -57.75 91.75 C-60.7661107 95.28938773 -64.00764573 98.5466575 -67.3125 101.8125 C-74.26581872 108.4252486 -74.26581872 108.4252486 -80.3125 115.8125 C-80.64064462 118.87271914 -80.64064462 118.87271914 -78.58984375 120.79296875 C-77.43162109 121.88544922 -77.43162109 121.88544922 -76.25 123 C-73.34376489 125.80679939 -70.54959817 128.60509705 -67.9375 131.6875 C-65.050352 135.05807743 -61.97003002 138.19753864 -58.8125 141.3125 C-55.09403524 144.98096859 -51.5758181 148.74399223 -48.1875 152.71875 C-45.82904726 155.35235556 -43.3280432 157.83076218 -40.8125 160.3125 C-37.71758498 163.36587951 -34.69315723 166.43573685 -31.875 169.75 C-28.85897196 173.28929074 -25.61802422 176.54744745 -22.3125 179.8125 C-18.41412672 183.66314297 -14.70273115 187.57288314 -11.15625 191.75390625 C-8.79780775 194.38716698 -6.27465621 196.84087041 -3.75 199.3125 C8.3463595 211.29238836 8.3463595 211.29238836 8.9375 219.125 C8.62277706 223.76716337 7.58581305 226.93443562 4.22265625 230.26171875 C0.15574925 233.73201347 -2.22626449 234.98679176 -7.5 235.125 C-8.88251953 235.18107422 -8.88251953 235.18107422 -10.29296875 235.23828125 C-18.37289821 234.09893803 -23.11875149 228.25590711 -28.3125 222.5 C-29.66560593 221.02376662 -31.01976343 219.54849637 -32.375 218.07421875 C-33.03024658 217.3582251 -33.68549316 216.64223145 -34.3605957 215.90454102 C-36.78681591 213.30413064 -39.30138146 210.80313248 -41.82958984 208.30249023 C-43.51889044 206.60512416 -45.08768213 204.83566527 -46.625 203 C-49.38868029 199.78916245 -52.29869596 196.78982835 -55.3125 193.8125 C-58.89808699 190.27017801 -62.26141662 186.63694339 -65.53515625 182.80859375 C-67.54518777 180.55117374 -69.66082953 178.43514287 -71.8125 176.3125 C-74.57810408 173.58420593 -77.22537031 170.82733166 -79.75 167.875 C-82.46869248 164.7021408 -85.34001675 161.74911618 -88.3125 158.8125 C-91.87650302 155.29143677 -95.21554168 151.68063992 -98.46875 147.875 C-100.66046313 145.42325311 -102.97317104 143.12364427 -105.3125 140.8125 C-120.81386918 125.45269583 -120.81386918 125.45269583 -121.3125 115.8125 C-120.23338226 106.28029333 -111.48474155 99.8971207 -104.9765625 93.5078125 C-103.25481585 91.75373258 -101.65878746 89.93113982 -100.0625 88.0625 C-97.12970359 84.65411498 -94.01176712 81.46851186 -90.8125 78.3125 C-87.71757019 75.2591338 -84.69315643 72.18926221 -81.875 68.875 C-78.37539503 64.76823465 -74.55267991 61.02525194 -70.71728516 57.23681641 C-67.36205443 53.90683671 -64.21532125 50.47327511 -61.15234375 46.87109375 C-58.35414208 43.74019719 -55.34476344 40.82420305 -52.35693359 37.87646484 C-49.75129261 35.29227682 -47.25196891 32.67040842 -44.875 29.875 C-41.37851395 25.77189468 -37.56089785 22.03010262 -33.72607422 18.24780273 C-30.85771897 15.40429151 -28.11571509 12.51967444 -25.5 9.4375 C-18.36154228 1.07730134 -11.20935213 -4.01844699 0 0 Z " fill="#00C9DE" transform="translate(167.3125,149.1875)"/>
<path d="M0 0 C5.88520071 3.17667084 10.28073167 8.01980544 14.9375 12.75 C15.71029297 13.5234375 16.48308594 14.296875 17.27929688 15.09375 C21.50887525 19.35550607 25.56013719 23.7142235 29.47875977 28.26269531 C31.39003971 30.44543774 33.41814641 32.48029129 35.5 34.5 C38.26560408 37.22829407 40.91287031 39.98516834 43.4375 42.9375 C46.15619248 46.1103592 49.02751675 49.06338382 52 52 C55.56400302 55.52106323 58.90304168 59.13186008 62.15625 62.9375 C64.34796313 65.38924689 66.66067104 67.68885573 69 70 C72.56400302 73.52106323 75.90304168 77.13186008 79.15625 80.9375 C81.34796313 83.38924689 83.66067104 85.68885573 86 88 C89.58784393 91.54990601 93.01515414 95.15439291 96.26953125 99.01171875 C97.50813842 100.43485882 98.8050873 101.80803095 100.13671875 103.14453125 C105.16789834 108.30216778 108.02388108 112.62074694 108 120 C107.13529403 125.8420379 104.10615217 129.32092816 99.87890625 133.23046875 C98.00175686 134.99834541 96.35409394 136.84647075 94.6875 138.8125 C91.92381971 142.02333755 89.01380404 145.02267165 86 148 C83.04816975 150.91626603 80.19611141 153.84605835 77.5 157 C74.01667458 161.0748335 70.22181292 164.79292992 66.41015625 168.55859375 C63.73145468 171.27202727 61.25391882 174.10777023 58.77734375 177.00390625 C56.04900715 180.06803813 53.10332092 182.90481832 50.18359375 185.78515625 C48.22025329 187.77659461 46.37920331 189.81302578 44.5625 191.9375 C41.84380752 195.1103592 38.97248325 198.06338382 36 201 C33.04816975 203.91626603 30.19611141 206.84605835 27.5 210 C24.02068966 214.07013663 20.23405794 217.78647858 16.41796875 221.5390625 C14.25535784 223.7401043 12.27766246 225.99914067 10.3125 228.375 C6.48030421 232.76735434 3.21698562 235.54915238 -2.67578125 236.375 C-8.61864829 236.6323366 -12.43122262 236.12304301 -17 232 C-20.78282333 228.21717667 -21.91070173 225.35789646 -22 220 C-21.07639461 210.57922505 -13.32223712 204.31009065 -7 198 C-6.16082031 197.15824219 -5.32164062 196.31648437 -4.45703125 195.44921875 C-2.97530215 193.97259026 -1.48978403 192.4997514 0 191.03125 C1.85932284 189.14287524 3.59388084 187.20357247 5.3125 185.1875 C8.37500183 181.61101185 11.65280287 178.30610201 15 175 C18.89896506 171.14878711 22.60824307 167.2357826 26.16015625 163.05859375 C28.95766867 159.92846838 31.96624506 157.01314342 34.95336914 154.06616211 C37.58040002 151.4607863 40.10000568 148.81537795 42.5 146 C45.34124577 142.66700015 48.38443924 139.5741597 51.5 136.5 C57.4250443 130.64639026 62.81716217 124.5149279 68 118 C67.59386475 117.56880859 67.18772949 117.13761719 66.76928711 116.69335938 C57.45346726 106.80174743 48.14897416 96.89966803 38.85888672 86.98388672 C35.73997846 83.65524888 32.61992913 80.32768094 29.5 77 C28.24999459 75.66667174 26.99999459 74.33333841 25.75 73 C25.13125 72.34 24.5125 71.68 23.875 71 C22 69 20.125 67 18.25 65 C17.63092773 64.33967773 17.01185547 63.67935547 16.37402344 62.99902344 C15.12719197 61.66902656 13.88044683 60.33894876 12.63378906 59.00878906 C9.46102243 55.62373068 6.28665167 52.24020092 3.109375 48.859375 C-0.01740896 45.53158631 -3.13945663 42.19942505 -6.25732422 38.86328125 C-7.40081737 37.6406503 -8.54563131 36.41925303 -9.69189453 35.19921875 C-11.23667441 33.55368226 -12.77540503 31.90271259 -14.3125 30.25 C-15.17488281 29.32703125 -16.03726562 28.4040625 -16.92578125 27.453125 C-20.82805416 22.83800751 -21.45765565 19.48886392 -21.30859375 13.53515625 C-20.80159056 9.37002877 -19.60255713 7.33661171 -17 4 C-11.79424184 -0.06049137 -6.55987169 -1.37889111 0 0 Z " fill="#00C9DE" transform="translate(358,148)"/>
</svg>
